<svg xmlns="http://www.w3.org/2000/svg" viewBox="0 0 120 120" width="120" height="120">
  <!-- Background circle -->
  <circle cx="60" cy="60" r="58" fill="#faf6f1" stroke="#4a3728" stroke-width="2"/>

  <!-- Coffee cup body -->
  <path d="M35 50 L38 85 C39 90 45 94 60 94 C75 94 81 90 82 85 L85 50 Z"
        fill="none" stroke="#4a3728" stroke-width="3" stroke-linecap="round" stroke-linejoin="round"/>

  <!-- Cup handle -->
  <path d="M85 55 C95 55 98 62 98 70 C98 78 95 82 85 82"
        fill="none" stroke="#4a3728" stroke-width="3" stroke-linecap="round"/>

  <!-- Coffee surface -->
  <ellipse cx="60" cy="50" rx="25" ry="6" fill="#c4883a" opacity="0.6"/>

  <!-- Steam/leaf combination - left -->
  <path d="M48 42 C48 35 52 28 48 22"
        fill="none" stroke="#8b6f5c" stroke-width="2.5" stroke-linecap="round"/>

  <!-- Steam/leaf combination - center (larger, leaf-like) -->
  <path d="M60 40 C60 32 65 26 60 18 C55 26 60 32 60 40"
        fill="#a8b5a0" stroke="#4a3728" stroke-width="1.5" opacity="0.8"/>

  <!-- Steam/leaf combination - right -->
  <path d="M72 42 C72 35 68 28 72 22"
        fill="none" stroke="#8b6f5c" stroke-width="2.5" stroke-linecap="round"/>
</svg>
